<svg xmlns="http://www.w3.org/2000/svg" viewBox="0 0 200 200" width="200" height="200">
  <defs>
    <linearGradient id="flaskGrad" x1="0%" y1="0%" x2="0%" y2="100%">
      <stop offset="0%" style="stop-color:#e3f2fd;stop-opacity:1" />
      <stop offset="100%" style="stop-color:#bbdefb;stop-opacity:1" />
    </linearGradient>
    <linearGradient id="liquidGrad" x1="0%" y1="0%" x2="0%" y2="100%">
      <stop offset="0%" style="stop-color:#00a86b;stop-opacity:0.8" />
      <stop offset="100%" style="stop-color:#00a86b;stop-opacity:1" />
    </linearGradient>
  </defs>
  
  <!-- Background -->
  <circle cx="100" cy="100" r="90" fill="#f5f5f5" stroke="#0066cc" stroke-width="2"/>
  
  <!-- Flask body -->
  <path d="M 70 60 L 70 100 L 50 150 Q 45 165 60 170 L 140 170 Q 155 165 150 150 L 130 100 L 130 60" 
        fill="url(#flaskGrad)" stroke="#0066cc" stroke-width="2"/>
  
  <!-- Flask neck -->
  <rect x="70" y="45" width="60" height="20" fill="white" stroke="#0066cc" stroke-width="2"/>
  
  <!-- Liquid -->
  <path d="M 55 145 L 65 120 L 135 120 L 145 145 Q 150 160 140 165 L 60 165 Q 50 160 55 145" 
        fill="url(#liquidGrad)"/>
  
  <!-- Bubbles -->
  <circle cx="80" cy="140" r="5" fill="white" opacity="0.6"/>
  <circle cx="95" cy="150" r="3" fill="white" opacity="0.4"/>
  <circle cx="115" cy="135" r="4" fill="white" opacity="0.5"/>
  <circle cx="125" cy="155" r="3" fill="white" opacity="0.4"/>
  
  <!-- DNA helix suggestion -->
  <path d="M 90 75 Q 100 85 110 75 Q 100 65 90 75" stroke="#0066cc" stroke-width="2" fill="none"/>
  <path d="M 90 90 Q 100 80 110 90 Q 100 100 90 90" stroke="#00a86b" stroke-width="2" fill="none"/>
</svg>
